<?xml version="1.0" encoding="utf-8"?>
<!-- Generator: Adobe Illustrator 25.4.0, SVG Export Plug-In . SVG Version: 6.00 Build 0)  -->
<svg version="1.0" id="Layer_1" xmlns="http://www.w3.org/2000/svg" xmlns:xlink="http://www.w3.org/1999/xlink" x="0px" y="0px"
	 viewBox="0 0 117.9 63.9" style="enable-background:new 0 0 117.9 63.9;" xml:space="preserve">
<style type="text/css">
	.st0{fill:#F4D452;}
	.st1{fill:#121436;}
</style>
<polygon class="st0" points="33,15.3 37,17.5 33,19.7 30.8,23.6 28.7,19.7 24.7,17.5 28.7,15.3 30.8,11.4 "/>
<polygon class="st0" points="38.8,23.7 40.8,24.7 38.8,25.8 37.7,27.8 36.7,25.8 34.7,24.7 36.7,23.7 37.7,21.7 "/>
<path class="st1" d="M37.1,50.2c0,0.2-0.1,0.3-0.1,0.4c0,0.5,0.3,0.8,0.8,0.8c0.3,0,0.7-0.1,1.1-0.3l0,0c-1.1,1.2-2.3,1.4-3.3,1.4
	c-1.7,0-2.6-1-2.6-2.3c0-0.3,0-0.5,0.1-0.8l1.1-4.5c0.1-0.2,0.1-0.5,0.1-0.6c0-0.4-0.1-0.6-0.5-0.6c-0.8,0-1.8,1.2-2.4,3.2l-1.3,5.4
	H26l1.9-7.4c0.1-0.2,0.1-0.5,0.1-0.6c0-0.4-0.1-0.6-0.5-0.6c-0.8,0-1.9,1.2-2.4,3.2l-1.3,5.4h-4.1l2-8.1c0.1-0.6,0.2-0.9,0.2-1.2
	c0-0.5-0.2-0.7-0.7-1.1l0,0h5.2l-0.8,3.2c1-2.1,2.4-3.4,4.4-3.4c1.6,0,2.2,1,2.2,2.3c0,0.3,0,0.7-0.1,1.1c1-2.1,2.4-3.4,4.4-3.4
	c1.7,0,2.2,1,2.2,2.2c0,0.4-0.1,0.9-0.2,1.3L37.1,50.2z"/>
<path class="st1" d="M46.6,41.8c2.8,0,4.9,1.6,4.9,4.3c0,3.9-3.3,6.5-6.9,6.5c-2.7,0-4.9-1.6-4.9-4.3C39.6,44.4,43,41.8,46.6,41.8z
	 M46.7,42.1c-0.9,0-1.7,1.7-2.4,4.2c-0.5,1.8-0.7,3.3-0.8,4.3c0,1,0.2,1.7,0.9,1.7c0.9,0,1.8-1.7,2.4-4.2c0.5-1.8,0.8-3.3,0.8-4.3
	C47.6,42.8,47.3,42.1,46.7,42.1z"/>
<path class="st1" d="M60.6,44.9c0-0.6-0.4-1-1-1c-1,0-2.1,1.4-2.7,3.8l-1.2,4.6h-4.1l2-8.1c0.1-0.6,0.2-0.9,0.2-1.2
	c0-0.5-0.2-0.7-0.7-1.1l0,0h5.2l-0.9,3.7c0.9-2.1,2.1-3.9,3.9-3.9c1.2,0,2.1,0.8,2.1,2c0,1.7-1.2,2.7-2.6,2.7c-0.5,0-1-0.2-1.2-0.4
	C60.2,46,60.6,45.6,60.6,44.9z"/>
<path class="st1" d="M74.2,50.2c-0.3,1.1,0.5,1.5,1.9,0.9l0,0c-1.1,1.2-2.3,1.4-3.3,1.4c-1.8,0-2.6-1.1-2.6-2.5c0-0.1,0-0.3,0.1-0.3
	c-0.8,1.5-1.9,2.8-3.9,2.8s-3.2-1.4-3.2-3.6c0-3.6,2.8-7.1,6.5-7.1c1.7,0,2.6,0.8,3.1,1.9c1-1.1,2.2-1.6,3.7-1.9
	c-0.5,1.3-0.8,2.8-1.2,4.5L74.2,50.2z M70.5,48.2l0.8-2.7c0.2-0.7,0.3-1.2,0.3-1.7c0-0.9-0.4-1.4-1-1.4c-1.7,0-3.2,4.5-3.2,6.9
	c0,1.1,0.3,1.7,1,1.7C69.3,51,70.1,49.5,70.5,48.2z"/>
<path class="st1" d="M79.1,39c0.1-0.5,0.2-0.8,0.2-1.1c0-0.6-0.3-0.8-0.9-1.2l0,0h5.4l-3.3,13.5c0,0.1-0.1,0.3-0.1,0.4
	c0,0.5,0.3,0.8,0.8,0.8c0.3,0,0.6-0.1,1.1-0.3l0,0c-1.1,1.2-2.3,1.4-3.3,1.4c-1.8,0-2.6-1-2.6-2.3c0-0.2,0-0.5,0.1-0.8L79.1,39z"/>
<path class="st1" d="M82.8,48.4c0-3.5,3.1-6.6,7.2-6.6c2.1,0,3.5,0.9,3.5,2.3c0,2.3-2.8,3.2-6.5,3.2c-0.1,0.3-0.1,0.7-0.1,1
	c0,1.8,1.1,2.6,2.4,2.6c1.2,0,2-0.4,2.9-1.4h0.1c-1.1,2-2.7,3.1-5.1,3.1C84.7,52.6,82.8,51,82.8,48.4z M87,47.1
	c2.3-0.3,3.6-2.3,3.6-4.2c0-0.5-0.2-0.8-0.6-0.8C88.9,42.1,87.4,44.7,87,47.1z"/>
<path class="st1" d="M99.2,41.8c2.2,0,3.6,0.8,3.6,2c0,0.8-0.7,1.4-1.6,1.4c-0.5,0-1-0.2-1.3-0.5c0.5-0.1,0.8-0.6,0.8-1.2
	c0-0.8-0.5-1.4-1.7-1.4c-1.1,0-1.9,0.6-1.9,1.4c0,0.7,0.5,1,1.9,1.8c2.3,1.2,3.2,1.9,3.2,3.4c0,2.2-2.4,3.9-5.3,3.9
	c-2.7,0-4.3-1.1-4.3-2.4c0-0.9,0.8-1.4,1.8-1.4c0.5,0,1,0.1,1.3,0.5c-0.5,0-0.9,0.5-0.9,1.2c0,1,0.9,1.8,2.2,1.8
	c1.3,0,2.1-0.5,2.1-1.5c0-0.7-0.6-1.2-2-1.9c-1.9-0.9-2.9-1.8-2.9-3.4C94.3,43.4,96.5,41.8,99.2,41.8z"/>
<path class="st1" d="M18.7,37.7c0,0.1,0,0.3,0,0.4c0,0.6,0.5,1,1.1,1c0.5,0,1.2-0.3,1.8-0.8h0.1c-1.1,1.4-2.2,2.1-4.1,2.1
	s-2.9-1-2.9-2.4c0-0.2,0-0.5,0.1-0.8l1.7-6.9h-1l0.1-0.3c2.4-0.5,4.5-1.7,5.9-3.9h0.2l-0.9,3.7h2.6L23,30.3h-2.5L18.7,37.7z"/>
<path class="st1" d="M31.6,32.7c0-0.6-0.4-1-1-1c-1,0-2.1,1.4-2.7,3.8l-1.2,4.7h-4.2l2-8.1c0.1-0.6,0.2-0.9,0.2-1.2
	c0-0.5-0.2-0.7-0.7-1.1l0,0h5.2l-0.9,3.7c0.9-2.1,2.1-3.9,3.9-3.9c1.2,0,2.1,0.8,2.1,2c0,1.7-1.2,2.7-2.6,2.7c-0.5,0-1-0.2-1.2-0.4
	C31.2,33.8,31.6,33.4,31.6,32.7z"/>
<path class="st1" d="M37.8,38c0,0.2-0.1,0.3-0.1,0.4c0,0.5,0.3,0.8,0.8,0.8c0.3,0,0.7-0.1,1.1-0.3l0,0c-1.1,1.2-2.3,1.4-3.3,1.4
	c-1.8,0-2.6-1-2.6-2.3c0-0.3,0-0.5,0.1-0.8l1.3-5.3c0.1-0.6,0.2-0.9,0.2-1.2c0-0.5-0.2-0.7-0.7-1.1l0,0h5.2L37.8,38z"/>
<path class="st1" d="M46.6,29.5c2.2,0,3.6,0.8,3.6,2c0,0.8-0.7,1.4-1.6,1.4c-0.5,0-1-0.2-1.3-0.5c0.5-0.1,0.8-0.6,0.8-1.2
	c0-0.8-0.5-1.4-1.7-1.4c-1.1,0-1.9,0.6-1.9,1.4c0,0.7,0.5,1,1.9,1.8c2.3,1.2,3.2,1.9,3.2,3.4c0,2.2-2.4,3.9-5.3,3.9
	c-2.7,0-4.3-1.1-4.3-2.4c0-0.9,0.8-1.4,1.8-1.4c0.5,0,1,0.1,1.3,0.5c-0.5,0-0.9,0.5-0.9,1.2c0,1,0.9,1.8,2.2,1.8s2.1-0.5,2.1-1.5
	c0-0.7-0.6-1.2-2-1.9c-1.9-0.9-2.9-1.8-2.9-3.4C41.7,31.2,43.9,29.5,46.6,29.5z"/>
<path class="st1" d="M54,40.2h-4.1l3.3-13.4c0.1-0.5,0.2-0.8,0.2-1.1c0-0.6-0.3-0.8-0.9-1.2l0,0h5.4L55.8,33c1-2.1,2.5-3.5,4.5-3.5
	c1.7,0,2.3,1,2.3,2.3c0,0.4-0.1,0.8-0.2,1.3L61.2,38c0,0.2-0.1,0.3-0.1,0.4c0,0.5,0.3,0.8,0.8,0.8c0.3,0,0.7-0.1,1.1-0.3l0,0
	c-1.1,1.2-2.3,1.4-3.3,1.4c-1.7,0-2.6-1-2.6-2.3c0-0.3,0-0.5,0.1-0.8l1.1-4.4c0.1-0.3,0.1-0.5,0.1-0.8c0-0.4-0.2-0.7-0.7-0.7
	c-0.9,0-2,1.2-2.5,3.2L54,40.2z"/>
<path class="st1" d="M75,38c-0.3,1.1,0.5,1.5,1.9,0.9l0,0c-1.1,1.2-2.3,1.4-3.3,1.4c-1.8,0-2.6-1.1-2.6-2.5c0-0.1,0-0.3,0.1-0.3
	c-0.8,1.5-1.9,2.8-3.9,2.8S64,38.9,64,36.6c0-3.7,2.8-7.2,6.5-7.2c1.7,0,2.6,0.8,3.1,1.9c1-1.1,2.2-1.6,3.7-1.9
	c-0.5,1.3-0.8,2.8-1.2,4.5L75,38z M71.3,36l0.8-2.8c0.2-0.7,0.3-1.2,0.3-1.7c0-0.9-0.4-1.4-1-1.4c-1.7,0-3.2,4.5-3.2,6.9
	c0,1.1,0.3,1.7,1,1.7C70.1,38.8,70.9,37.3,71.3,36z"/>
</svg>
